<svg id="ae_logo" data-name="ae logo" xmlns="http://www.w3.org/2000/svg" viewBox="0 0 1064.81234 687.16346"><defs><style>.cls-1,.cls-2{fill:#fff;}.cls-1{opacity:0.8;}</style></defs><g id="ae"><path class="cls-1" d="M799.39046,297.97684H644.33571a89.35386,89.35386,0,0,0-4.33743,81.48646H803.67455a89.10086,89.10086,0,0,0-4.28409-81.48646"/><path class="cls-1" d="M776.4031,414.07124A89.71107,89.71107,0,0,1,639.99828,379.464H554.66806a169.67492,169.67492,0,0,0,9.90822,30.91885c26.22686,60.93708,86.8475,103.72085,157.28677,103.72085a171.44846,171.44846,0,0,0,127.06372-56.49c2.092-2.31694,4.09253-4.69773,6.04535-7.11093Z"/><path class="cls-2" d="M644.336,297.97684H556.74408a170.65992,170.65992,0,0,0-6.03394,44.83767v.265a171.02061,171.02061,0,0,0,3.95815,36.38382h85.33022a89.34605,89.34605,0,0,1,4.33749-81.48646"/><path class="cls-2" d="M811.53164,342.94676a89.49281,89.49281,0,0,1-7.85721,36.51727h85.37978a170.33431,170.33431,0,0,0-2.07107-81.48739h-87.5928a89.09534,89.09534,0,0,1,12.1413,44.97012"/><path class="cls-1" d="M342.94743,253.277A89.82908,89.82908,0,0,1,432.616,342.88083v-145.643a169.67856,169.67856,0,0,0-89.46181-25.44056h-.41363c-94.28059.11244-170.94825,76.843-170.94825,171.14934,0,94.3759,76.78012,171.157,171.15508,171.157A169.74052,169.74052,0,0,0,432.616,488.65727v-145.644A89.66912,89.66912,0,1,1,342.94743,253.277"/><path class="cls-1" d="M432.616,197.23789a171.18561,171.18561,0,0,1,81.48454,145.64305V171.79736H432.616Z"/><path class="cls-1" d="M432.616,488.65719V515.372h81.48454V343.01226A171.18883,171.18883,0,0,1,432.616,488.65719"/><path class="cls-2" d="M432.616,197.23789V342.88094c0,.0219.00093.04383.00093.06576s-.00093.04384-.00093.0667v145.644a171.19,171.19,0,0,0,81.48454-145.64491v-.13153A171.18561,171.18561,0,0,0,432.616,197.23789"/><path class="cls-1" d="M875.21576,267.05462c-28.02442-56.39566-86.22234-95.26319-153.35253-95.26319-67.13113,0-125.32811,38.86753-153.35247,95.26319A169.8024,169.8024,0,0,0,556.744,297.97635h87.59187a90.3321,90.3321,0,0,1,29.85431-30.92173,89.367,89.367,0,0,1,95.34611,0,90.33141,90.33141,0,0,1,29.85426,30.92173h87.59187a169.94309,169.94309,0,0,0-11.76668-30.92173"/></g></svg>