<?xml version="1.0" encoding="utf-8"?>
<!-- Generator: Adobe Illustrator 28.2.0, SVG Export Plug-In . SVG Version: 6.00 Build 0)  -->
<svg version="1.1" id="ae_logo" xmlns="http://www.w3.org/2000/svg" xmlns:xlink="http://www.w3.org/1999/xlink" x="0px" y="0px"
	 viewBox="0 0 1814.2 687.2" style="enable-background:new 0 0 1814.2 687.2;" xml:space="preserve">
<style type="text/css">
	.st0{fill:#FF8C00;}
	.st1{fill:#FF4B28;}
</style>
<g id="ae_1_">
	<path class="st0" d="M799.4,298H644.3c-7.7,13.2-12.1,28.6-12.1,45c0,13,2.8,25.4,7.8,36.5h163.7c5.1-11.4,7.9-23.8,7.9-36.5
		C811.5,326.6,807.1,311.2,799.4,298"/>
	<path class="st0" d="M776.4,414.1c-15.5,11.9-34.7,18.5-54.5,18.5c-22.6,0-43.2-8.4-59-22.2c-9.7-8.5-17.5-19-22.9-30.9h-85.3
		c2.3,10.7,5.7,21.1,9.9,30.9c26.2,60.9,86.8,103.7,157.3,103.7c48.4,0,94.7-20.6,127.1-56.5c2.1-2.3,4.1-4.7,6-7.1L776.4,414.1z"/>
	<path class="st1" d="M644.3,298h-87.6c-3.9,14.3-6,29.3-6,44.8v0.3c0,12.5,1.4,24.7,4,36.4H640c-5-11.2-7.8-23.5-7.8-36.5
		C632.2,326.6,636.6,311.2,644.3,298"/>
	<path class="st1" d="M811.5,342.9c0,12.7-2.8,25.1-7.9,36.5h85.4c2.6-11.9,4-24.1,4-36.5c0-15.6-2.1-30.6-6-45h-87.6
		C807.1,311.2,811.5,326.6,811.5,342.9"/>
	<path class="st0" d="M342.9,253.3c22.5,0,43,8.3,58.7,22c18.9,16.4,30.9,40.6,30.9,67.6V197.2c-9.7-6-20.1-11.1-30.9-15.1
		c-18.3-6.7-38-10.4-58.5-10.4h-0.4c-94.3,0.1-171,76.8-171,171.2c0,94.4,76.8,171.2,171.2,171.2c20.6,0,40.4-3.7,58.7-10.4
		c10.9-4,21.2-9.1,30.9-15.1V343c0,27-12,51.2-30.9,67.6c-15.7,13.7-36.3,22-58.7,22c-49.4,0-89.7-40.2-89.7-89.7
		S293.5,253.3,342.9,253.3"/>
	<path class="st0" d="M432.6,197.2c48.8,30.2,81.5,84.2,81.5,145.6V171.8h-81.5V197.2z"/>
	<path class="st0" d="M432.6,488.7v26.7h81.5V343C514.1,404.5,481.5,458.5,432.6,488.7"/>
	<path class="st1" d="M432.6,197.2v145.6c0,0,0,0,0,0.1s0,0,0,0.1v145.6c48.8-30.2,81.5-84.2,81.5-145.6v-0.1
		C514.1,281.4,481.5,227.4,432.6,197.2"/>
	<path class="st0" d="M875.2,267.1c-28-56.4-86.2-95.3-153.4-95.3c-67.1,0-125.3,38.9-153.4,95.3c-4.9,9.8-8.8,20.2-11.8,30.9h87.6
		c7.3-12.6,17.6-23.2,29.9-30.9c13.8-8.7,30.2-13.8,47.7-13.8c17.5,0,33.9,5.1,47.7,13.8c12.3,7.7,22.5,18.4,29.9,30.9H887
		C884,287.2,880.1,276.9,875.2,267.1"/>
</g>
<g>
	<path d="M998.2,261.1h-11v-89.3h40.6c41.1,0,41.1,60.3,0,60.5h-29.6V261.1z M1027.7,182.1h-29.6v39.8h29.6
		C1054,221.9,1054,182.1,1027.7,182.1z"/>
	<path d="M1122.3,261.3l-0.3-11.5c-5,8.7-14.5,12.8-23.2,12.8c-18.1,0-32.3-12.5-32.3-33c0-20.4,14.4-32.7,32.4-32.5
		c9.4,0,18.8,4.3,23.3,12.5l0.1-11.5h10.2v63h-10.1L1122.3,261.3z M1099.3,207c-12.5,0-22.6,8.9-22.6,23c0,14,10.1,23.1,22.6,23.1
		c30.4,0,30.4-46.2,0.1-46.2L1099.3,207z"/>
	<path d="M1161.6,197.9l0.8,9.4c4.3-8.2,12.1-10.5,19.4-10.5c5.5-0.1,10.8,1.8,14.7,4.7l-4.7,8.9c-3.3-2.3-6.6-3.4-11-3.4
		c-10.1,0.1-18.5,7.3-18.5,18.9v35.1h-10.5v-63h9.7L1161.6,197.9z"/>
	<path d="M1224.1,198.2h19.5v8.9h-19.6v33.3c0,7.4,2.4,12.1,10,12.1c2.8,0,6-0.9,8.8-2.3l3.1,8.7c-4.2,1.9-8,2.9-12.2,3.1
		c-13.5,0.3-19.9-7.7-19.9-21.6v-33.3H1201v-8.9h12.6v-17.3l10.5-1.1V198.2z"/>
	<path d="M1257,197.9h9.6l0.5,10.1c5.5-7.5,13.1-11,21.6-11c15.9,0,27.7,10.7,27.7,29.2v34.8h-10.5v-34.7c0-12.1-7.1-19.6-19.1-19.6
		c-11.5,0.1-19.4,9.2-19.4,20.5v33.8H1257v-63V197.9z"/>
	<path d="M1390.9,251c-6.4,7.5-17.3,11.2-27.2,11.2c-19.5,0-33.2-12.9-33.2-32.9c0-19,13.6-32.7,32.7-32.7c19.3,0,33.9,11.9,31.5,37
		h-53.6c1.1,11.6,10.7,18.9,22.8,18.9c7.1,0,15.8-2.8,20-7.9l7,6.4H1390.9z M1384.8,225c-0.5-12.2-8.9-18.9-21.3-18.9
		c-11,0-20.5,6.6-22.3,18.8h43.6V225z"/>
	<path d="M1419.1,197.9l0.8,9.4c4.3-8.2,12.1-10.5,19.4-10.5c5.5-0.1,10.8,1.8,14.7,4.7l-4.7,8.9c-3.3-2.3-6.6-3.4-11-3.4
		c-10.1,0.1-18.5,7.3-18.5,18.9v35.1h-10.5v-63h9.7L1419.1,197.9z"/>
	<path d="M997.1,305.5c0,9.1-13.8,9.1-13.8-0.1C983.4,296.3,997.1,296.3,997.1,305.5z M984.9,387.7h10.5v-63.3h-10.5V387.7z"/>
	<path d="M1014.5,324.5h9.6l0.5,10.1c5.5-7.5,13.1-11,21.6-11c15.9,0,27.7,10.7,27.7,29.2v34.8h-10.5V353c0-12.1-7.1-19.6-19.1-19.6
		c-11.5,0.1-19.4,9.2-19.4,20.5v33.8h-10.3v-63V324.5z"/>
	<path d="M1127,298.2h32.5c30.4,0,44.9,21.7,44.9,43.8c0,22.8-13.6,45.7-44.9,45.7H1127v-89.3V298.2z M1193.3,341.9
		c0-16.6-11-32.9-33.8-32.9h-21.4v67.6h21.4C1183.2,376.6,1193.3,359,1193.3,341.9z"/>
	<path d="M1231.7,305.5c0,9.1-13.8,9.1-13.8-0.1C1218,296.3,1231.7,296.3,1231.7,305.5z M1219.5,387.7h10.5v-63.3h-10.5V387.7z"/>
	<path d="M1278.4,415.6c10.8,0,22.2-4,22.2-14.9c0-10.2-10.3-15.2-22.1-15.2c-19.8,0-33.3-11.5-33.3-31.1
		c0-20.8,17.1-31.3,33.3-31.3c5.7,0,13.3,1.5,17.9,4.7l6.8-8.2l7.4,5.9l-7.1,8.4c5,5.6,8.2,11.2,8.2,20.4c0,10.7-5.5,21.7-17.7,25.6
		c12.2,3.6,17.3,11.5,17.3,20.5c0,16.3-16.2,24.6-32.9,24.6c-19,0-32.7-9.9-32.3-26.9h10.1C1256.1,410.5,1266.9,415.5,1278.4,415.6z
		 M1278.7,376.3c13.4,0,22.7-9.7,22.7-21.8c0-14.4-11-21.8-22.8-21.8c-11.2,0-23,7-23,21.7C1255.8,368.8,1266,376.3,1278.7,376.3z"
		/>
	<path d="M1339.3,305.5c0,9.1-13.8,9.1-13.8-0.1C1325.5,296.3,1339.3,296.3,1339.3,305.5z M1327,387.7h10.5v-63.3H1327V387.7z"/>
	<path d="M1374.3,324.8h19.5v8.9h-19.6V367c0,7.4,2.4,12.1,10,12.1c2.8,0,6-0.9,8.8-2.3l3.1,8.7c-4.2,1.9-8,2.9-12.2,3.1
		c-13.5,0.3-19.9-7.7-19.9-21.6v-33.3h-12.6v-8.9h12.6v-17.3l10.5-1.1V324.8z"/>
	<path d="M1459,387.9l-0.3-11.5c-5,8.7-14.5,12.8-23.2,12.8c-18.1,0-32.3-12.5-32.3-33c0-20.4,14.4-32.7,32.4-32.5
		c9.4,0,18.8,4.3,23.3,12.5l0.1-11.5h10.2v63h-10.1L1459,387.9z M1436.1,333.6c-12.5,0-22.6,8.9-22.6,23c0,14,10.1,23.1,22.6,23.1
		c30.4,0,30.4-46.2,0.1-46.2L1436.1,333.6z"/>
	<path d="M1499.7,387.7h-10.5v-89.3h10.5V387.7z"/>
	<path d="M987.2,424.9h62.8v10.2h-51.8v27.9h49.6v10.3h-49.6v30.2h53.8v10.6h-64.8V424.9z"/>
	<path d="M1083.1,482l-21.2-30.4v-0.4h11.6l16.3,23.9l16.1-23.9h12v0.4l-21.4,30.4l23.1,32v0.3h-12l-17.7-25.5l-17.9,25.5h-11.6V514
		L1083.1,482z"/>
	<path d="M1181.1,505.7c-6.8,6.8-14.8,9.7-23.5,9.7c-18,0-32.9-11.6-32.9-32.7c0-21,14.7-32.7,32.9-32.7c8.5,0,16.2,2.9,22.8,9.4
		l-6.6,6.9c-4.5-4.3-10.3-6.4-15.9-6.4c-12.5,0-22.6,8.5-22.6,22.7c0,14.7,10.2,22.7,22.4,22.7c6,0,12-2,16.5-6.6l7,7L1181.1,505.7z
		"/>
	<path d="M1249.5,504.1c-6.4,7.5-17.3,11.2-27.2,11.2c-19.5,0-33.2-12.9-33.2-32.9c0-19,13.6-32.7,32.7-32.7
		c19.3,0,33.9,11.9,31.5,37h-53.6c1.1,11.6,10.7,18.9,22.8,18.9c7.1,0,15.8-2.8,20-7.9l7,6.4H1249.5z M1243.3,478.1
		c-0.5-12.2-8.9-18.9-21.3-18.9c-11,0-20.5,6.6-22.3,18.8h43.6V478.1z"/>
	<path d="M1279.1,514.2h-10.5v-89.3h10.5V514.2z"/>
	<path d="M1310.2,514.2h-10.5v-89.3h10.5V514.2z"/>
	<path d="M1386.5,504.1c-6.4,7.5-17.3,11.2-27.2,11.2c-19.5,0-33.2-12.9-33.2-32.9c0-19,13.6-32.7,32.7-32.7
		c19.3,0,33.9,11.9,31.5,37h-53.6c1.1,11.6,10.7,18.9,22.8,18.9c7.1,0,15.8-2.8,20-7.9l7,6.4H1386.5z M1380.3,478.1
		c-0.5-12.2-8.9-18.9-21.3-18.9c-11,0-20.5,6.6-22.3,18.8h43.6V478.1z"/>
	<path d="M1404.8,451.1h9.6l0.5,10.1c5.5-7.5,13.1-11,21.6-11c15.9,0,27.7,10.7,27.7,29.2v34.8h-10.5v-34.7
		c0-12.1-7.1-19.6-19.1-19.6c-11.5,0.1-19.4,9.2-19.4,20.5v33.8h-10.3v-63V451.1z"/>
	<path d="M1534.8,505.7c-6.8,6.8-14.8,9.7-23.5,9.7c-18,0-32.9-11.6-32.9-32.7c0-21,14.7-32.7,32.9-32.7c8.5,0,16.2,2.9,22.8,9.4
		l-6.6,6.9c-4.5-4.3-10.3-6.4-15.9-6.4c-12.5,0-22.6,8.5-22.6,22.7c0,14.7,10.2,22.7,22.4,22.7c6,0,12-2,16.5-6.6l7,7L1534.8,505.7z
		"/>
	<path d="M1603.2,504.1c-6.4,7.5-17.3,11.2-27.2,11.2c-19.5,0-33.2-12.9-33.2-32.9c0-19,13.6-32.7,32.7-32.7
		c19.3,0,33.9,11.9,31.5,37h-53.6c1.1,11.6,10.7,18.9,22.8,18.9c7.1,0,15.8-2.8,20-7.9l7,6.4H1603.2z M1597.1,478.1
		c-0.5-12.2-8.9-18.9-21.3-18.9c-11,0-20.5,6.6-22.3,18.8h43.6V478.1z"/>
</g>
</svg>
