<svg id="ae_logo" data-name="ae logo" xmlns="http://www.w3.org/2000/svg" viewBox="0 0 1064.81234 687.16346"><defs><style>.cls-1{fill:#ff8c00;}.cls-2{fill:#ff4b28;}</style></defs><g id="ae"><path class="cls-1" d="M799.392,297.97766H644.33747a89.35844,89.35844,0,0,0-4.338,81.48628H803.676a89.09388,89.09388,0,0,0-4.284-81.48628"/><path class="cls-1" d="M776.40469,414.07246a89.70877,89.70877,0,0,1-136.40448-34.60812H554.668a169.67786,169.67786,0,0,0,9.91,30.92011c26.2261,60.9362,86.8463,103.72034,157.28651,103.72034a171.44808,171.44808,0,0,0,127.06445-56.49018c2.092-2.316,4.092-4.698,6.044-7.11Z"/><path class="cls-2" d="M644.33708,297.97766H556.74477a170.73021,170.73021,0,0,0-6.034,44.83817v.264a171.11355,171.11355,0,0,0,3.958,36.38412h85.33028a89.34189,89.34189,0,0,1,4.338-81.48628"/><path class="cls-2" d="M811.53323,342.94762a89.4943,89.4943,0,0,1-7.85806,36.51813h85.38029a170.34585,170.34585,0,0,0-2.07-81.48829H799.39116a89.09307,89.09307,0,0,1,12.14207,44.97016"/><path class="cls-1" d="M342.94745,253.2775a89.831,89.831,0,0,1,89.6683,89.60431V197.23733a169.72006,169.72006,0,0,0-89.46231-25.44009h-.412c-94.28231.112-170.95057,76.84426-170.95057,171.15056,0,94.37633,76.78026,171.15657,171.15658,171.15657a169.73336,169.73336,0,0,0,89.6683-25.44607V343.01381a89.66931,89.66931,0,1,1-89.6683-89.73631"/><path class="cls-1" d="M432.61636,197.23834a171.1828,171.1828,0,0,1,81.48425,145.64249V171.79828H432.61636Z"/><path class="cls-1" d="M432.61636,488.65851V515.3726h81.48425V343.014a171.18617,171.18617,0,0,1-81.48425,145.64449"/><path class="cls-2" d="M432.61636,197.23834v291.421a171.18963,171.18963,0,0,0,81.48425-145.64651v-.132a171.1828,171.1828,0,0,0-81.48425-145.64249"/><path class="cls-1" d="M875.21765,267.05516c-28.02415-56.39618-86.22234-95.26429-153.35257-95.26429-67.13219,0-125.32837,38.86811-153.35248,95.26429a169.79534,169.79534,0,0,0-11.768,30.92212h87.59227A90.35458,90.35458,0,0,1,674.191,267.05516a89.36553,89.36553,0,0,1,95.34627,0,90.31741,90.31741,0,0,1,29.8541,30.92212h87.59234a169.93939,169.93939,0,0,0-11.766-30.92212"/></g></svg>